<svg width="24" height="24" viewBox="0 0 24 24" fill="none" xmlns="http://www.w3.org/2000/svg">
<path fill-rule="evenodd" clip-rule="evenodd" d="M12 24C18.6274 24 24 18.6274 24 12C24 5.37258 18.6274 0 12 0C5.37258 0 0 5.37258 0 12C0 18.6274 5.37258 24 12 24ZM15.1548 11.3816C15.2166 11.4082 15.2777 11.4359 15.3377 11.4647C16.187 11.8721 16.808 12.4889 17.1338 13.2483C17.5878 14.3074 17.6293 16.0325 16.2517 17.4088C15.1988 18.4608 13.9206 18.9355 12.1073 18.9481H12.0992C10.0596 18.934 8.49119 18.2476 7.43755 16.9082C6.49994 15.7163 6.0163 14.0578 6.00005 11.9789L6 11.974L6.00005 11.9691C6.0163 9.89023 6.49994 8.23177 7.43755 7.03986C8.49119 5.70044 10.0596 5.01413 12.0992 5H12.1073C14.1511 5.01418 15.7372 5.69789 16.8218 7.03221C17.3569 7.69051 17.7501 8.48427 18 9.40543L16.827 9.7184C16.6208 8.97003 16.3081 8.32819 15.8933 7.8178C15.0473 6.77703 13.7723 6.24307 12.1032 6.23066C10.4462 6.24298 9.19308 6.77438 8.3783 7.81015C7.61533 8.78005 7.22102 10.181 7.20631 11.974C7.22102 13.7671 7.61533 15.168 8.3783 16.1379C9.19308 17.1737 10.4463 17.7051 12.1033 17.7174C13.5971 17.7064 14.5855 17.351 15.4078 16.5295C16.3463 15.5918 16.3288 14.4416 16.0286 13.7417C15.8521 13.3299 15.5324 12.9874 15.1011 12.7271C14.9961 13.51 14.7582 14.1313 14.382 14.6108C13.8867 15.2422 13.1767 15.5875 12.2717 15.6371C11.5864 15.6745 10.927 15.5092 10.4151 15.1713C9.80955 14.7715 9.45516 14.1595 9.41725 13.4482C9.34253 12.0458 10.455 11.0366 12.1855 10.9369C12.7998 10.9017 13.3744 10.9294 13.9057 11.0197C13.8352 10.5883 13.6927 10.2465 13.4797 9.99908C13.187 9.65928 12.7348 9.48504 12.1355 9.48122L12.1189 9.48117C11.6377 9.48117 10.9844 9.61582 10.5681 10.2474L9.56708 9.56078C10.1244 8.71519 11.0298 8.25051 12.1184 8.25051L12.1431 8.25056C13.9632 8.26218 15.0471 9.39787 15.1548 11.3816ZM10.6217 13.3813C10.6606 14.1105 11.4485 14.4509 12.2069 14.4082C12.9495 14.3674 13.7923 14.0761 13.936 12.2816C13.5508 12.1973 13.127 12.1533 12.6741 12.1533C12.5364 12.1533 12.3963 12.1574 12.2535 12.1656C11.0065 12.2375 10.5929 12.8407 10.6217 13.3813Z" fill="white"/>
</svg>
